<?xml version="1.0" encoding="utf-8"?>
<!-- Generator: Adobe Illustrator 16.0.2, SVG Export Plug-In . SVG Version: 6.00 Build 0)  -->
<!DOCTYPE svg PUBLIC "-//W3C//DTD SVG 1.1//EN" "http://www.w3.org/Graphics/SVG/1.1/DTD/svg11.dtd" [
	<!ENTITY ns_extend "http://ns.adobe.com/Extensibility/1.0/">
	<!ENTITY ns_ai "http://ns.adobe.com/AdobeIllustrator/10.0/">
	<!ENTITY ns_graphs "http://ns.adobe.com/Graphs/1.0/">
	<!ENTITY ns_vars "http://ns.adobe.com/Variables/1.0/">
	<!ENTITY ns_imrep "http://ns.adobe.com/ImageReplacement/1.0/">
	<!ENTITY ns_sfw "http://ns.adobe.com/SaveForWeb/1.0/">
	<!ENTITY ns_custom "http://ns.adobe.com/GenericCustomNamespace/1.0/">
	<!ENTITY ns_adobe_xpath "http://ns.adobe.com/XPath/1.0/">
]>
<svg version="1.1" id="Слой_1" xmlns:x="&ns_extend;" xmlns:i="&ns_ai;" xmlns:graph="&ns_graphs;"
	 xmlns="http://www.w3.org/2000/svg" xmlns:xlink="http://www.w3.org/1999/xlink" x="0px" y="0px" width="229.841px"
	 height="70.866px" viewBox="0 0 229.841 70.866" enable-background="new 0 0 229.841 70.866" xml:space="preserve">
<switch>
	<g i:extraneous="self">
		<g>
			<defs>
				<rect id="SVGID_1_" y="0" width="229.841" height="70.866"/>
			</defs>
			<clipPath id="SVGID_2_">
				<use xlink:href="#SVGID_1_"  overflow="visible"/>
			</clipPath>
			<path clip-path="url(#SVGID_2_)" fill="#FFFFFF"  d="M109.301,20.584c0,1.872-0.277,3.522-0.835,4.952c-0.557,1.429-1.315,2.623-2.27,3.579
				c-0.957,0.957-2.076,1.677-3.359,2.16c-1.284,0.483-2.649,0.726-4.1,0.726c-1.451,0-2.822-0.243-4.115-0.726
				c-1.295-0.483-2.418-1.203-3.375-2.16c-0.957-0.956-1.719-2.15-2.287-3.579c-0.567-1.43-0.852-3.08-0.852-4.952
				c0-1.871,0.285-3.516,0.852-4.935c0.568-1.419,1.342-2.612,2.318-3.579c0.979-0.967,2.107-1.693,3.391-2.177
				c1.281-0.483,2.638-0.726,4.068-0.726c1.43,0,2.785,0.243,4.068,0.726c1.284,0.484,2.403,1.21,3.36,2.177
				c0.955,0.967,1.719,2.16,2.285,3.579C109.018,17.068,109.301,18.713,109.301,20.584 M92.239,20.584
				c0,1.199,0.148,2.286,0.443,3.264s0.719,1.809,1.278,2.491c0.554,0.684,1.234,1.215,2.033,1.593
				c0.799,0.379,1.703,0.567,2.713,0.567c0.988,0,1.881-0.188,2.679-0.567c0.801-0.378,1.479-0.909,2.036-1.593
				c0.556-0.682,0.982-1.513,1.277-2.491c0.293-0.978,0.441-2.065,0.441-3.264c0-1.198-0.148-2.286-0.441-3.264
				c-0.295-0.978-0.721-1.808-1.277-2.491c-0.557-0.683-1.235-1.214-2.036-1.592c-0.798-0.379-1.691-0.568-2.679-0.568
				c-1.01,0-1.914,0.189-2.713,0.568c-0.799,0.378-1.479,0.914-2.033,1.607c-0.559,0.695-0.983,1.525-1.278,2.492
				C92.387,18.303,92.239,19.386,92.239,20.584"/>
			<path clip-path="url(#SVGID_2_)" fill="#FFFFFF"  d="M118.417,31.842c-1.133-0.02-2.076-0.146-2.822-0.377c-0.748-0.232-1.34-0.563-1.782-0.994
				c-0.443-0.431-0.754-0.967-0.931-1.608c-0.18-0.642-0.27-1.373-0.27-2.193V7.684l3.819-0.63v18.892
				c0,0.461,0.035,0.85,0.109,1.166c0.076,0.316,0.207,0.584,0.396,0.804c0.189,0.221,0.445,0.389,0.771,0.505
				c0.326,0.115,0.742,0.205,1.246,0.268L118.417,31.842z"/>
			<path clip-path="url(#SVGID_2_)" fill="#FFFFFF"  d="M125.388,28.784c1.008,0,1.744-0.12,2.207-0.362c0.463-0.242,0.693-0.658,0.693-1.246
				c0-0.546-0.246-0.998-0.74-1.357c-0.494-0.357-1.309-0.746-2.443-1.166c-0.693-0.252-1.33-0.52-1.908-0.805
				c-0.578-0.283-1.078-0.615-1.498-0.993c-0.422-0.379-0.752-0.836-0.994-1.372c-0.242-0.536-0.363-1.193-0.363-1.97
				c0-1.514,0.557-2.706,1.672-3.581c1.113-0.871,2.629-1.308,4.541-1.308c0.969,0,1.893,0.09,2.777,0.268
				c0.881,0.18,1.543,0.352,1.986,0.52l-0.695,3.092c-0.42-0.19-0.955-0.363-1.607-0.521c-0.652-0.158-1.408-0.237-2.271-0.237
				c-0.777,0-1.408,0.132-1.891,0.395c-0.484,0.262-0.727,0.667-0.727,1.214c0,0.274,0.047,0.515,0.143,0.725
				c0.094,0.21,0.258,0.405,0.488,0.583c0.23,0.179,0.535,0.358,0.914,0.536c0.379,0.179,0.842,0.363,1.389,0.552
				c0.902,0.337,1.67,0.668,2.301,0.993c0.633,0.327,1.152,0.694,1.563,1.104c0.41,0.411,0.709,0.879,0.898,1.404
				c0.189,0.526,0.285,1.156,0.285,1.891c0,1.579-0.584,2.772-1.752,3.58c-1.168,0.809-2.832,1.215-4.998,1.215
				c-1.451,0-2.619-0.121-3.5-0.363c-0.885-0.242-1.504-0.436-1.861-0.583l0.662-3.185c0.566,0.231,1.244,0.452,2.035,0.663
				C123.479,28.679,124.378,28.784,125.388,28.784"/>
			<path clip-path="url(#SVGID_2_)" fill="#FFFFFF"  d="M134.88,31.528V7.685l3.815-0.63v8.168c0.421-0.147,0.911-0.273,1.468-0.379
				c0.557-0.104,1.107-0.157,1.655-0.157c1.325,0,2.423,0.185,3.296,0.552c0.872,0.368,1.572,0.883,2.098,1.545
				c0.524,0.662,0.897,1.457,1.121,2.382c0.219,0.924,0.33,1.954,0.33,3.089v9.273h-3.816v-8.673c0-0.884-0.059-1.635-0.174-2.255
				c-0.115-0.62-0.305-1.124-0.568-1.513c-0.262-0.389-0.613-0.673-1.057-0.853c-0.441-0.177-0.988-0.268-1.639-0.268
				c-0.507,0-1.021,0.054-1.548,0.159c-0.522,0.105-0.913,0.2-1.166,0.283v13.12H134.88z"/>
			<path clip-path="url(#SVGID_2_)" fill="#FFFFFF"  d="M157.935,14.624c1.262,0,2.324,0.158,3.186,0.473s1.551,0.757,2.064,1.324
				c0.516,0.568,0.885,1.257,1.105,2.066c0.221,0.81,0.33,1.698,0.33,2.665v9.997c-0.588,0.126-1.477,0.279-2.664,0.458
				c-1.188,0.178-2.529,0.267-4.021,0.267c-0.99,0-1.893-0.094-2.713-0.284c-0.818-0.189-1.52-0.494-2.098-0.914
				s-1.029-0.967-1.355-1.64c-0.326-0.672-0.488-1.504-0.488-2.492c0-0.945,0.184-1.745,0.553-2.396
				c0.365-0.652,0.865-1.183,1.498-1.593c0.629-0.41,1.359-0.704,2.188-0.883c0.831-0.178,1.7-0.268,2.604-0.268
				c0.42,0,0.861,0.026,1.324,0.079c0.463,0.052,0.957,0.142,1.482,0.268V21.12c0-0.442-0.053-0.862-0.158-1.261
				c-0.104-0.4-0.289-0.751-0.551-1.057c-0.264-0.304-0.611-0.541-1.043-0.709c-0.43-0.168-0.971-0.253-1.623-0.253
				c-0.883,0-1.693,0.064-2.428,0.19c-0.736,0.126-1.336,0.273-1.797,0.442l-0.475-3.092c0.484-0.168,1.188-0.336,2.113-0.504
				C155.895,14.708,156.884,14.624,157.935,14.624 M158.249,28.846c1.178,0,2.072-0.062,2.682-0.189v-4.225
				c-0.211-0.063-0.516-0.127-0.914-0.19c-0.4-0.063-0.842-0.094-1.326-0.094c-0.421,0-0.846,0.031-1.277,0.094
				c-0.43,0.063-0.82,0.179-1.166,0.347c-0.346,0.169-0.627,0.405-0.836,0.71c-0.211,0.305-0.316,0.688-0.316,1.151
				c0,0.904,0.285,1.529,0.852,1.876C156.515,28.673,157.282,28.846,158.249,28.846"/>
			<path clip-path="url(#SVGID_2_)" fill="#FFFFFF"  d="M168.499,15.57c0.736-0.21,1.693-0.41,2.871-0.599c1.178-0.19,2.48-0.284,3.91-0.284
				c1.346,0,2.471,0.184,3.375,0.552s1.625,0.882,2.16,1.545c0.537,0.662,0.913,1.461,1.137,2.397c0.219,0.935,0.33,1.96,0.33,3.074
				v9.273h-3.814v-8.673c0-0.884-0.059-1.635-0.174-2.255c-0.117-0.62-0.307-1.125-0.568-1.514
				c-0.264-0.389-0.622-0.673-1.072-0.852c-0.453-0.178-1.004-0.268-1.656-0.268c-0.484,0-0.988,0.032-1.516,0.095
				c-0.523,0.063-0.914,0.116-1.166,0.158v13.309h-3.816V15.57z"/>
			<path clip-path="url(#SVGID_2_)" fill="#FFFFFF"  d="M190.294,28.784c1.01,0,1.744-0.12,2.207-0.362c0.463-0.242,0.693-0.658,0.693-1.246
				c0-0.546-0.246-0.998-0.74-1.357c-0.494-0.357-1.309-0.746-2.445-1.166c-0.694-0.252-1.33-0.52-1.908-0.805
				c-0.578-0.283-1.078-0.615-1.498-0.993c-0.42-0.379-0.752-0.836-0.992-1.372c-0.242-0.536-0.365-1.193-0.365-1.97
				c0-1.514,0.559-2.706,1.672-3.581c1.115-0.871,2.631-1.308,4.543-1.308c0.967,0,1.893,0.09,2.775,0.268
				c0.883,0.18,1.545,0.352,1.986,0.52l-0.693,3.092c-0.421-0.19-0.957-0.363-1.609-0.521c-0.65-0.158-1.408-0.237-2.271-0.237
				c-0.776,0-1.409,0.132-1.892,0.395c-0.484,0.262-0.725,0.667-0.725,1.214c0,0.274,0.047,0.515,0.141,0.725
				c0.096,0.21,0.258,0.405,0.488,0.583c0.232,0.179,0.537,0.358,0.916,0.536c0.379,0.179,0.84,0.363,1.389,0.552
				c0.902,0.337,1.67,0.668,2.301,0.993c0.631,0.327,1.15,0.694,1.561,1.104c0.41,0.411,0.711,0.879,0.898,1.404
				c0.189,0.526,0.285,1.156,0.285,1.891c0,1.579-0.584,2.772-1.75,3.58c-1.168,0.809-2.834,1.215-5,1.215
				c-1.449,0-2.617-0.121-3.5-0.363s-1.504-0.436-1.862-0.583l0.663-3.185c0.568,0.231,1.246,0.452,2.035,0.663
				C188.386,28.679,189.284,28.784,190.294,28.784"/>
			<path clip-path="url(#SVGID_2_)" fill="#FFFFFF"  d="M203.603,21.467c0.482-0.505,0.998-1.046,1.545-1.624s1.082-1.156,1.607-1.735
				c0.527-0.577,1.027-1.135,1.498-1.671c0.473-0.536,0.879-1.004,1.215-1.403h4.51c-1.051,1.177-2.156,2.397-3.32,3.658
				c-1.164,1.261-2.332,2.491-3.508,3.689c0.631,0.526,1.291,1.162,1.982,1.908c0.693,0.747,1.363,1.54,2.016,2.381
				c0.648,0.842,1.256,1.683,1.824,2.524c0.566,0.84,1.039,1.619,1.416,2.334h-4.416c-0.377-0.653-0.814-1.336-1.309-2.051
				c-0.494-0.714-1.025-1.408-1.592-2.081c-0.568-0.673-1.146-1.309-1.734-1.908c-0.59-0.599-1.168-1.109-1.734-1.53v7.57h-3.816
				V7.684l3.816-0.63V21.467z"/>
			<path clip-path="url(#SVGID_2_)" fill="#FFFFFF"  d="M229.841,15.034c-1.699,6.265-3.672,11.941-5.916,17.03
				c-0.422,0.945-0.854,1.755-1.295,2.426c-0.441,0.674-0.938,1.231-1.484,1.672c-0.549,0.441-1.159,0.763-1.832,0.963
				c-0.674,0.199-1.452,0.299-2.336,0.299c-0.59,0-1.174-0.063-1.752-0.189c-0.58-0.125-1.018-0.263-1.311-0.409l0.693-3.06
				c0.762,0.295,1.512,0.442,2.25,0.442c0.992,0,1.77-0.237,2.33-0.71c0.559-0.473,1.048-1.203,1.473-2.191
				c-1.205-2.313-2.359-4.836-3.471-7.569c-1.107-2.734-2.094-5.635-2.961-8.704h4.068c0.213,0.882,0.471,1.84,0.777,2.87
				c0.307,1.03,0.637,2.076,0.998,3.137c0.357,1.062,0.736,2.119,1.137,3.169c0.401,1.052,0.805,2.03,1.205,2.933
				c0.668-1.871,1.297-3.863,1.885-5.976c0.584-2.112,1.117-4.157,1.6-6.133H229.841z"/>
			<path clip-path="url(#SVGID_2_)" fill="#FFFFFF"  d="M94.731,35.887c3.09,0,5.393,0.591,6.906,1.767c1.514,1.179,2.272,2.85,2.272,5.015
				c0,1.241-0.221,2.297-0.662,3.17c-0.442,0.873-1.072,1.576-1.893,2.113c-0.818,0.535-1.824,0.925-3.011,1.166
				c-1.19,0.242-2.53,0.363-4.022,0.363h-2.965v8.452h-2.142V36.487c0.756-0.21,1.642-0.363,2.664-0.457
				C92.897,35.935,93.848,35.887,94.731,35.887 M94.825,37.749c-0.799,0-1.477,0.026-2.033,0.078
				c-0.559,0.053-1.037,0.1-1.436,0.143v9.65h2.713c1.156,0,2.203-0.068,3.139-0.205c0.935-0.136,1.734-0.389,2.396-0.757
				c0.662-0.367,1.172-0.878,1.53-1.528c0.357-0.651,0.537-1.482,0.537-2.492c0-0.967-0.196-1.766-0.584-2.396
				c-0.389-0.631-0.905-1.131-1.545-1.498c-0.643-0.367-1.373-0.626-2.192-0.773C96.53,37.822,95.688,37.749,94.825,37.749"/>
			<path clip-path="url(#SVGID_2_)" fill="#FFFFFF"  d="M111.669,41.25c1.072,0,1.98,0.153,2.726,0.457c0.746,0.306,1.352,0.726,1.813,1.262
				c0.465,0.536,0.801,1.173,1.012,1.908c0.209,0.736,0.316,1.535,0.316,2.396v10.279c-0.211,0.065-0.518,0.134-0.916,0.207
				c-0.4,0.073-0.863,0.153-1.389,0.236c-0.525,0.084-1.109,0.153-1.75,0.205c-0.641,0.052-1.299,0.079-1.971,0.079
				c-0.863,0-1.656-0.094-2.383-0.284c-0.724-0.188-1.353-0.489-1.89-0.899s-0.957-0.935-1.262-1.576
				c-0.305-0.642-0.457-1.424-0.457-2.349c0-0.884,0.168-1.642,0.504-2.272c0.338-0.631,0.809-1.15,1.42-1.561
				c0.609-0.411,1.334-0.709,2.176-0.898c0.84-0.189,1.754-0.285,2.742-0.285c0.295,0,0.605,0.017,0.932,0.049
				c0.324,0.031,0.64,0.074,0.947,0.125c0.303,0.053,0.566,0.105,0.787,0.158s0.373,0.101,0.457,0.143v-1.01
				c0-0.567-0.043-1.119-0.127-1.655c-0.084-0.537-0.268-1.02-0.551-1.45c-0.285-0.431-0.684-0.778-1.199-1.041
				c-0.514-0.263-1.193-0.395-2.033-0.395c-1.199,0-2.092,0.084-2.682,0.252c-0.588,0.169-1.019,0.305-1.291,0.41l-0.285-1.797
				c0.357-0.168,0.908-0.326,1.656-0.475C109.717,41.323,110.616,41.25,111.669,41.25 M111.856,56.451
				c0.799,0,1.498-0.026,2.098-0.079c0.599-0.052,1.109-0.12,1.529-0.205v-5.74c-0.231-0.104-0.6-0.215-1.104-0.332
				c-0.502-0.113-1.199-0.172-2.082-0.172c-0.503,0-1.029,0.036-1.576,0.109c-0.547,0.074-1.051,0.232-1.513,0.474
				c-0.463,0.242-0.842,0.573-1.135,0.993c-0.295,0.422-0.444,0.979-0.444,1.673c0,0.609,0.1,1.124,0.301,1.546
				c0.199,0.42,0.485,0.756,0.852,1.008c0.367,0.252,0.81,0.437,1.324,0.553C110.621,56.393,111.205,56.451,111.856,56.451"/>
			<path clip-path="url(#SVGID_2_)" fill="#FFFFFF"  d="M127.532,41.313c0.672,0,1.309,0.053,1.908,0.157c0.598,0.105,1.012,0.21,1.244,0.315
				l-0.41,1.766c-0.168-0.084-0.508-0.173-1.023-0.268c-0.516-0.096-1.195-0.143-2.035-0.143c-0.883,0-1.592,0.063-2.129,0.189
				c-0.537,0.128-0.887,0.232-1.055,0.316v14.285h-2.051V42.385c0.525-0.232,1.25-0.468,2.176-0.71
				C125.083,41.434,126.206,41.313,127.532,41.313"/>
			<path clip-path="url(#SVGID_2_)" fill="#FFFFFF"  d="M134.911,41.627h6.498v1.734h-6.498v8.674c0,0.926,0.08,1.678,0.238,2.256
				c0.156,0.577,0.383,1.024,0.678,1.339c0.293,0.315,0.65,0.526,1.072,0.631c0.42,0.105,0.883,0.158,1.387,0.158
				c0.861,0,1.557-0.1,2.082-0.3s0.936-0.384,1.229-0.553l0.505,1.704c-0.296,0.188-0.811,0.405-1.546,0.646
				s-1.534,0.362-2.396,0.362c-1.01,0-1.857-0.131-2.539-0.395c-0.684-0.263-1.231-0.662-1.641-1.199
				c-0.41-0.535-0.699-1.203-0.867-2.002s-0.252-1.743-0.252-2.838V36.833l2.049-0.378V41.627z"/>
			<path clip-path="url(#SVGID_2_)" fill="#FFFFFF"  d="M144.405,42.196c0.606-0.168,1.43-0.357,2.459-0.568c1.029-0.209,2.293-0.314,3.785-0.314
				c1.24,0,2.275,0.179,3.105,0.536c0.832,0.357,1.494,0.868,1.988,1.529c0.494,0.662,0.846,1.456,1.057,2.382
				c0.209,0.924,0.314,1.943,0.314,3.059v9.113h-2.049v-8.451c0-1.156-0.078-2.134-0.236-2.934
				c-0.158-0.799-0.422-1.451-0.789-1.955c-0.369-0.505-0.854-0.867-1.451-1.088c-0.6-0.221-1.352-0.331-2.254-0.331
				c-0.969,0-1.805,0.054-2.508,0.157c-0.705,0.105-1.162,0.2-1.373,0.284v14.317h-2.049V42.196z"/>
			<path clip-path="url(#SVGID_2_)" fill="#FFFFFF"  d="M160.585,49.764c0-1.43,0.203-2.676,0.613-3.736c0.41-1.063,0.947-1.949,1.609-2.666
				c0.661-0.713,1.418-1.244,2.271-1.592c0.849-0.347,1.729-0.521,2.633-0.521c1.996,0,3.59,0.651,4.777,1.955
				s1.781,3.312,1.781,6.023c0,0.169-0.004,0.337-0.014,0.505c-0.012,0.168-0.027,0.326-0.049,0.473h-11.447
				c0.063,1.998,0.557,3.533,1.482,4.604c0.924,1.073,2.396,1.609,4.414,1.609c1.113,0,1.998-0.106,2.65-0.315
				c0.65-0.211,1.123-0.389,1.418-0.537l0.379,1.767c-0.295,0.169-0.848,0.368-1.656,0.599c-0.809,0.231-1.762,0.348-2.855,0.348
				c-1.428,0-2.648-0.211-3.658-0.631c-1.008-0.42-1.839-1.01-2.49-1.766c-0.652-0.757-1.125-1.656-1.42-2.697
				C160.729,52.146,160.585,51.005,160.585,49.764 M172.157,48.471c-0.041-1.703-0.439-3.027-1.197-3.974s-1.83-1.419-3.217-1.419
				c-0.736,0-1.395,0.148-1.973,0.441c-0.578,0.295-1.082,0.689-1.512,1.184c-0.432,0.493-0.77,1.066-1.01,1.719
				c-0.242,0.65-0.385,1.334-0.426,2.049H172.157z"/>
			<path clip-path="url(#SVGID_2_)" fill="#FFFFFF" d="M183.606,41.313c0.672,0,1.309,0.053,1.908,0.157c0.6,0.105,1.014,0.21,1.246,0.315
				l-0.41,1.766c-0.168-0.084-0.51-0.173-1.025-0.268c-0.516-0.096-1.193-0.143-2.033-0.143c-0.885,0-1.594,0.063-2.131,0.189
				c-0.535,0.128-0.887,0.232-1.055,0.316v14.285h-2.051V42.385c0.525-0.232,1.252-0.468,2.176-0.71
				C181.157,41.434,182.282,41.313,183.606,41.313"/>
			<path clip-path="url(#SVGID_2_)" fill="#FFFFFF" d="M192.405,56.483c1.178,0,2.15-0.195,2.916-0.584c0.77-0.389,1.152-1.047,1.152-1.972
				c0-0.44-0.068-0.819-0.205-1.135s-0.363-0.6-0.678-0.852c-0.314-0.253-0.73-0.494-1.247-0.726
				c-0.515-0.232-1.149-0.505-1.907-0.82c-0.609-0.252-1.188-0.51-1.734-0.772s-1.031-0.567-1.451-0.915s-0.756-0.762-1.008-1.244
				c-0.254-0.484-0.379-1.074-0.379-1.768c0-1.324,0.5-2.396,1.498-3.217c0.998-0.819,2.371-1.229,4.115-1.229
				c1.115,0,2.034,0.095,2.76,0.284c0.727,0.189,1.233,0.357,1.529,0.504l-0.473,1.83c-0.252-0.127-0.678-0.295-1.277-0.506
				c-0.6-0.209-1.477-0.314-2.633-0.314c-0.463,0-0.898,0.047-1.311,0.143c-0.41,0.094-0.772,0.242-1.086,0.442
				c-0.316,0.2-0.568,0.453-0.758,0.759c-0.189,0.305-0.283,0.678-0.283,1.121c0,0.442,0.084,0.822,0.252,1.138
				s0.414,0.595,0.74,0.837s0.725,0.469,1.198,0.678s1.015,0.439,1.623,0.691c0.634,0.25,1.235,0.507,1.815,0.768
				c0.578,0.262,1.088,0.577,1.529,0.945c0.441,0.367,0.799,0.809,1.071,1.324c0.274,0.516,0.411,1.162,0.411,1.94
				c0,1.472-0.551,2.587-1.656,3.343c-1.104,0.756-2.611,1.135-4.525,1.135c-1.43,0-2.523-0.121-3.279-0.362
				c-0.758-0.241-1.262-0.427-1.514-0.552l0.535-1.861c0.064,0.042,0.198,0.111,0.41,0.205c0.209,0.095,0.493,0.2,0.852,0.315
				c0.357,0.116,0.783,0.216,1.277,0.3S191.753,56.483,192.405,56.483"/>
			<path clip-path="url(#SVGID_2_)" fill="#4C2C4E" d="M70.867,35.433c0,19.569-15.863,35.433-35.434,35.433
				C15.865,70.866,0,55.002,0,35.433C0,15.864,15.865,0,35.433,0C55.004,0,70.867,15.864,70.867,35.433"/>
			<path clip-path="url(#SVGID_2_)" fill="#FFFFFF" d="M64.92,55.088c-0.004,0.007-0.033,0.048-0.07,0.097
				c-0.036,0.046-0.077,0.091-0.088,0.104c-0.442,0.459-1.03,0.723-1.719,0.723c-0.863,0-1.645-0.355-2.207-0.926
				c-0.002-0.004-0.006-0.007-0.01-0.009c-0.082-0.085-0.158-0.175-0.23-0.268c-0.508-0.583-0.981-1.114-1.315-1.477
				c0.963-1.539,1.672-2.433,2.563-3.813c0.808-1.245,1.431-2.382,2.011-3.479c0.063-0.116,0.129-0.369,0.129-0.369
				c0.034-0.138,0.053-0.282,0.053-0.431c0-1.018-0.826-1.844-1.844-1.844c-0.494,0-0.943,0.195-1.273,0.513
				c-0.129,0.124-0.234,0.248-0.34,0.417c-0.102,0.163-0.141,0.227-0.205,0.342c-1.154,2.078-2.346,4.125-3.69,5.971l-7.787-7.93
				c0.895-0.48,1.746-1.025,2.547-1.633c0.803-0.609,1.514-1.283,2.139-2.02s1.121-1.553,1.492-2.451
				c0.367-0.896,0.551-1.905,0.551-3.028c0-0.993-0.176-1.939-0.527-2.835c-0.356-0.896-0.875-1.667-1.563-2.307
				c-0.689-0.641-1.537-1.153-2.549-1.537c-1.008-0.386-2.154-0.578-3.435-0.578c-1.25,0-2.397,0.192-3.44,0.578
				c-1.039,0.384-1.937,0.929-2.689,1.634c-0.752,0.703-1.348,1.569-1.78,2.595c-0.429,1.027-0.652,2.179-0.652,3.46
				c0,2.531,1.188,4.981,3.561,7.351c-0.93,0.45-1.826,0.972-2.694,1.565c-0.867,0.59-1.625,1.279-2.281,2.064
				c-0.658,0.785-1.18,1.666-1.56,2.645c-0.385,0.979-0.581,2.09-0.581,3.338c0,0.994,0.178,2.037,0.53,3.125
				c0.353,1.09,0.953,2.092,1.801,3.004c0.849,0.914,1.964,1.666,3.339,2.258c1.381,0.595,3.112,0.891,5.196,0.891
				c1.906,0,3.627-0.296,5.162-0.887c0.271-0.104,0.537-0.217,0.797-0.34c1.564-0.735,2.955-1.68,4.177-2.823
				c0.131-0.121,0.262-0.245,0.389-0.371c0.484,0.534,0.951,1.067,1.404,1.603c-0.002,0.001-0.004,0.002-0.005,0.004
				c0.523,0.649,0.837,1.476,0.837,2.375c0,0.711-0.201,1.338-0.587,1.845c-0.247,0.321-0.428,0.477-0.629,0.642
				c0.347-0.242,0.593-0.389,0.947-0.666c2.844-2.229,4.244-3.908,5.695-6.347C64.658,55.583,64.762,55.395,64.92,55.088
				 M44.305,31.106c0.752-0.848,1.836-1.276,3.246-1.276c1.248,0,2.234,0.379,2.955,1.131c0.721,0.752,1.082,1.674,1.082,2.763
				c0,0.835-0.137,1.579-0.408,2.235c-0.274,0.657-0.641,1.259-1.106,1.802c-0.465,0.545-1.01,1.026-1.633,1.442
				c-0.629,0.416-1.291,0.802-1.996,1.152c-2.181-1.985-3.269-4.019-3.269-6.103C43.176,33.004,43.551,31.953,44.305,31.106
				 M50.748,56.264c-1.33,0.577-2.781,0.866-4.354,0.866c-1.216,0-2.234-0.185-3.05-0.552c-0.817-0.37-1.483-0.834-1.992-1.395
				c-0.518-0.563-0.885-1.179-1.108-1.851c-0.226-0.674-0.338-1.298-0.338-1.875c0-1.024,0.153-1.923,0.459-2.69
				c0.305-0.77,0.695-1.434,1.178-1.994c0.48-0.561,1.016-1.035,1.609-1.418c0.592-0.385,1.178-0.722,1.754-1.012l9.373,9.469
				C53.254,54.872,52.076,55.688,50.748,56.264"/>
		</g>
	</g>
</switch>
</svg>
